<svg width="293" height="336" viewBox="0 0 293 336" fill="none" xmlns="http://www.w3.org/2000/svg">
<path d="M121.382 81.3354C121.382 80.3735 121.417 79.4046 121.382 78.4428C120.942 68.5466 120.248 58.6504 120.092 48.7471C119.851 33.3791 119.985 18.0041 119.95 2.62901C119.95 1.28244 120.517 0.719593 121.878 0.726718C128.194 0.762341 134.517 0.726718 140.834 0.755217C142.932 0.762342 143.286 1.17557 143.286 3.29873C143.286 42.057 143.286 80.8224 143.286 119.581C143.286 119.937 143.244 120.3 143.286 120.649C143.499 122.359 142.769 122.887 141.075 122.879C134.808 122.844 134.865 122.844 130.37 118.455C118.561 106.927 106.694 95.4565 94.8555 83.9501C81.4931 70.9618 68.1519 57.9593 54.7966 44.971C53.3859 43.5959 51.9185 42.2921 50.4724 40.9527C50.3094 41.0239 50.1463 41.1023 49.9833 41.1735C49.9195 41.8931 49.7635 42.6199 49.799 43.3394C51.2025 68.6534 51.4648 93.9888 51.2734 119.338C51.238 123.67 50.9899 122.773 47.8141 122.801C41.9658 122.844 36.1175 122.822 30.2763 122.808C28.0859 122.808 27.9229 122.637 27.9229 120.507C27.9229 81.2142 27.9229 41.9145 27.8803 2.62188C27.8803 0.947583 28.5254 0.356234 30.0495 0.420356C30.1062 0.420356 30.17 0.420356 30.2267 0.420356C36.6279 0.206616 36.5783 0.256488 41.2002 4.74504C54.7753 17.9328 68.3929 31.0779 81.9964 44.2443C89.8579 51.8534 97.7194 59.4626 105.588 67.0646C110.267 71.5888 114.945 76.1059 119.638 80.6158C119.964 80.9293 120.368 81.1715 120.737 81.4494C120.957 81.4137 121.176 81.3781 121.389 81.3425L121.382 81.3354Z" fill="#FFFEFD"/>
<path d="M63.0196 133.844C72.6462 133.844 82.2941 133.438 91.8995 133.944C103.773 134.571 114.584 138.461 123.097 147.246C131.108 155.518 134.567 165.556 134.014 177.055C133.752 182.47 132.462 187.593 129.981 192.395C126.266 199.591 120.886 205.191 113.818 209.109C111.918 210.164 109.891 210.997 107.892 211.874C106.432 212.515 106.183 213.106 107.169 214.396C110.798 219.141 114.47 223.865 118.128 228.588C124.579 236.91 131.037 245.232 137.488 253.553C138.246 254.536 139.125 255.455 139.728 256.524C140.933 258.654 140.167 259.937 137.807 259.937C131.604 259.944 125.401 259.908 119.199 259.965C117.837 259.98 116.909 259.588 116.058 258.455C108.14 247.967 100.172 237.523 92.2043 227.071C89.8012 223.922 87.3272 220.822 84.9666 217.638C84.0876 216.448 83.0242 216.084 81.6207 216.092C73.2913 216.12 64.9619 216.092 56.6326 216.113C54.3287 216.113 54.1302 216.348 54.1302 218.706C54.1302 231.652 54.1302 244.59 54.1373 257.536C54.1373 259.844 54.0593 259.944 51.7555 259.951C45.6733 259.958 39.584 259.901 33.5018 259.973C31.7863 259.994 31.2971 259.41 31.2971 257.714C31.3468 238.534 31.3255 219.362 31.3255 200.182C31.3255 197.945 31.5665 197.831 33.7924 197.867C48.7923 198.116 63.7923 198.351 78.7922 198.508C83.1589 198.551 87.5611 198.643 91.8782 198.13C101.009 197.04 109.82 189.859 111.592 180.076C113.194 171.227 111.018 163.861 104.241 158.025C99.8815 154.271 94.579 152.946 88.9292 152.946C70.5621 152.96 52.1879 153.003 33.8208 153.031C31.368 153.031 31.1199 152.76 31.1554 150.238C31.2192 145.493 31.3397 140.741 31.29 135.996C31.2688 134.236 31.9422 133.737 33.5868 133.745C43.3907 133.787 53.2016 133.766 63.0054 133.766V133.844H63.0196Z" fill="#FFFEFD"/>
<path d="M203.449 234.146C203.449 226.373 203.499 218.592 203.4 210.819C203.385 209.608 202.974 208.226 202.301 207.228C194.687 196.028 186.996 184.878 179.312 173.728C171.762 162.778 164.184 151.841 156.62 140.905C155.883 139.836 154.933 138.86 154.444 137.684C154.019 136.673 153.969 135.426 154.083 134.322C154.111 134.072 155.5 133.816 156.259 133.809C162.929 133.759 169.607 133.809 176.278 133.723C178.121 133.702 179.461 134.144 180.552 135.818C185.082 142.75 189.917 149.483 194.305 156.501C199.82 165.314 205.009 174.327 210.325 183.261C211.474 185.192 212.551 187.165 213.749 189.068C214.883 190.87 215.571 190.806 216.62 189.011C221.972 179.82 227.19 170.544 232.733 161.467C236.334 155.567 240.403 149.953 244.267 144.211C246.344 141.119 248.385 137.998 250.54 134.963C250.944 134.393 251.83 133.83 252.497 133.823C259.819 133.752 267.142 133.752 274.465 133.816C276.592 133.837 277.23 135.397 275.897 137.442C273.77 140.712 271.516 143.89 269.304 147.103C262.931 156.358 256.551 165.613 250.179 174.868C242.898 185.434 235.583 195.979 228.388 206.602C227.579 207.791 227.062 209.43 227.048 210.862C226.949 226.472 226.956 242.082 227.005 257.7C227.005 259.381 226.559 259.994 224.829 259.973C218.392 259.894 211.956 259.894 205.519 259.973C203.889 259.994 203.385 259.474 203.4 257.835C203.47 249.941 203.435 242.047 203.435 234.153H203.442L203.449 234.146Z" fill="#FFFEFD"/>
<path d="M277.031 61.9847C277.031 96.218 249.419 123.969 215.358 123.969C181.297 123.969 153.686 96.218 153.686 61.9847C153.686 27.7515 181.297 0 215.358 0C249.419 0 277.031 27.7515 277.031 61.9847Z" fill="#FFB128"/>
<path d="M0 309.639H9.25091C11.9919 309.639 14.4021 310.173 16.4815 311.242C18.5609 312.287 20.1677 313.795 21.3019 315.766C22.4597 317.713 23.0387 319.993 23.0387 322.606C23.0387 325.218 22.4597 327.51 21.3019 329.481C20.1677 331.428 18.5609 332.936 16.4815 334.005C14.4021 335.05 11.9919 335.573 9.25091 335.573H0V309.639ZM2.12665 332.83H9.14458C11.2476 332.83 13.0671 332.414 14.603 331.583C16.1625 330.751 17.3558 329.564 18.1828 328.02C19.0098 326.477 19.4234 324.672 19.4234 322.606C19.4234 320.539 19.0098 318.735 18.1828 317.191C17.3558 315.647 16.1625 314.46 14.603 313.629C13.0671 312.797 11.2476 312.382 9.14458 312.382H2.12665L3.40263 311.384V333.827L2.12665 332.83Z" fill="#FFB128"/>
<path d="M40.5544 309.639H57.3904V312.382H42.7165L43.957 311.277V333.934L42.7165 332.83H57.7448V335.573H40.5544V309.639ZM42.1848 321.038H56.327V323.71H42.1848V321.038Z" fill="#FFB128"/>
<path d="M75.0861 309.639H78.2761L94.474 331.369L93.3753 331.476V309.639H96.4589V335.573H93.517L77.3191 313.842L78.1697 313.735V335.573H75.0861V309.639Z" fill="#FFB128"/>
<path d="M120.968 310.957H124.371V335.573H120.968V310.957ZM112.851 309.639H132.487V312.382H112.851V309.639Z" fill="#FFB128"/>
<path d="M148.857 309.639H152.26V335.573H148.857V309.639Z" fill="#FFB128"/>
<path d="M178.902 336C176.941 336 175.121 335.656 173.443 334.967C171.766 334.254 170.454 333.352 169.509 332.26L170.431 329.837C171.329 330.835 172.522 331.654 174.011 332.295C175.523 332.936 177.094 333.257 178.725 333.257C179.906 333.257 180.969 333.067 181.915 332.687C182.86 332.307 183.604 331.773 184.148 331.084C184.691 330.372 184.963 329.528 184.963 328.555C184.963 327.415 184.514 326.5 183.616 325.812C182.718 325.099 181.253 324.506 179.221 324.031L178.299 323.817C176.291 323.342 174.684 322.807 173.479 322.214C172.297 321.596 171.423 320.848 170.856 319.969C170.313 319.091 170.041 318.022 170.041 316.763C170.041 315.148 170.431 313.783 171.21 312.667C171.99 311.527 173.054 310.672 174.4 310.102C175.747 309.508 177.283 309.211 179.008 309.211C180.851 309.211 182.529 309.532 184.041 310.173C185.554 310.79 186.77 311.622 187.692 312.667L186.806 315.089C185.932 314.115 184.809 313.355 183.439 312.809C182.092 312.239 180.686 311.954 179.221 311.954C178.11 311.954 177.118 312.132 176.244 312.489C175.369 312.821 174.684 313.32 174.188 313.985C173.692 314.65 173.443 315.457 173.443 316.407C173.443 317.191 173.644 317.844 174.046 318.366C174.448 318.889 175.062 319.34 175.889 319.72C176.716 320.076 177.815 320.409 179.185 320.718L180.142 320.931C183.072 321.596 185.175 322.499 186.451 323.639C187.727 324.779 188.365 326.31 188.365 328.234C188.365 329.849 187.952 331.25 187.125 332.438C186.298 333.601 185.164 334.492 183.722 335.109C182.304 335.703 180.698 336 178.902 336Z" fill="#FFB128"/>
<path d="M210.891 310.957H214.293V335.573H210.891V310.957ZM202.774 309.639H222.41V312.382H202.774V309.639Z" fill="#FFB128"/>
<path d="M238.78 309.639H248.491C250.429 309.639 252.083 309.936 253.454 310.529C254.824 311.123 255.864 311.978 256.573 313.094C257.281 314.21 257.636 315.552 257.636 317.12C257.636 318.616 257.246 319.934 256.466 321.074C255.687 322.19 254.611 323.045 253.241 323.639C251.87 324.232 250.334 324.529 248.633 324.529H240.481V321.893H248.385C250.181 321.893 251.599 321.478 252.638 320.646C253.702 319.791 254.233 318.616 254.233 317.12C254.233 315.576 253.725 314.4 252.709 313.593C251.693 312.762 250.204 312.346 248.243 312.346H240.906L242.182 311.384V335.573H238.78V309.639ZM247.96 322.534L251.327 322.249L258.026 335.573H254.34L247.96 322.534Z" fill="#FFB128"/>
<path d="M271.946 309.639H275.632L283.678 324.494H281.622L289.704 309.639H293L283.855 326.061H281.091L271.946 309.639ZM280.772 323.959H284.174V335.573H280.772V323.959Z" fill="#FFB128"/>
</svg>
