<svg width="60" height="69" viewBox="0 0 60 69" fill="none" xmlns="http://www.w3.org/2000/svg">
<path d="M24.8564 16.7028C24.8564 16.5053 24.8636 16.3063 24.8564 16.1088C24.7664 14.0765 24.6241 12.0443 24.5922 10.0106C24.5428 6.85464 24.5704 3.69726 24.5631 0.539885C24.5631 0.263359 24.6793 0.147774 24.958 0.149237C26.2514 0.156552 27.5462 0.149237 28.8396 0.155089C29.2693 0.156552 29.3419 0.241412 29.3419 0.677417C29.3419 8.63671 29.3419 16.5975 29.3419 24.5567C29.3419 24.6299 29.3332 24.7045 29.3419 24.7762C29.3855 25.1274 29.2359 25.2356 28.889 25.2342C27.6058 25.2268 27.6174 25.2268 26.697 24.3256C24.2786 21.9583 21.8486 19.6027 19.4243 17.2398C16.688 14.5725 13.956 11.9024 11.2211 9.23512C10.9323 8.95274 10.6318 8.68499 10.3356 8.40992C10.3023 8.42456 10.2689 8.44065 10.2355 8.45528C10.2224 8.60305 10.1905 8.75229 10.1977 8.90006C10.4852 14.0985 10.5389 19.3013 10.4997 24.507C10.4924 25.3966 10.4416 25.2122 9.79128 25.2181C8.59368 25.2268 7.39608 25.2225 6.19994 25.2195C5.75138 25.2195 5.71799 25.1844 5.71799 24.7469C5.71799 16.6779 5.71799 8.60744 5.70928 0.538422C5.70928 0.194593 5.84138 0.0731552 6.15348 0.0863231C6.16509 0.0863231 6.17816 0.0863231 6.18977 0.0863231C7.5006 0.04243 7.49044 0.0526717 8.4369 0.974427C11.2168 3.68263 14.0054 6.38206 16.7911 9.08588C18.4009 10.6485 20.0108 12.2111 21.6221 13.7722C22.5802 14.7013 23.5383 15.6289 24.4993 16.555C24.566 16.6194 24.6488 16.6691 24.7243 16.7262C24.7693 16.7189 24.8143 16.7116 24.8578 16.7043L24.8564 16.7028Z" fill="#FFFEFD"/>
<path d="M12.905 27.4859C14.8764 27.4859 16.852 27.4025 18.819 27.5064C21.2505 27.6351 23.4642 28.434 25.2077 30.238C26.848 31.9366 27.5564 33.9982 27.4432 36.3596C27.3895 37.4716 27.1253 38.5235 26.6172 39.5097C25.8565 40.9874 24.7547 42.1374 23.3075 42.9421C22.9184 43.1587 22.5033 43.3298 22.0939 43.5098C21.7949 43.6415 21.744 43.7629 21.9458 44.0277C22.6891 45.0022 23.441 45.9722 24.1901 46.9422C25.511 48.6511 26.8335 50.3601 28.1545 52.069C28.3098 52.2709 28.4898 52.4596 28.6132 52.6791C28.86 53.1165 28.7032 53.3799 28.2198 53.3799C26.9496 53.3814 25.6794 53.3741 24.4093 53.3858C24.1305 53.3887 23.9404 53.3082 23.7662 53.0756C22.1447 50.9219 20.5131 48.777 18.8814 46.6306C18.3893 45.9839 17.8827 45.3475 17.3993 44.6934C17.2193 44.4491 17.0016 44.3745 16.7141 44.376C15.0085 44.3818 13.3028 44.3759 11.5971 44.3803C11.1253 44.3803 11.0847 44.4286 11.0847 44.9129C11.0847 47.5714 11.0847 50.2284 11.0861 52.8868C11.0861 53.3609 11.0702 53.3814 10.5984 53.3828C9.35289 53.3843 8.10593 53.3726 6.86043 53.3872C6.50913 53.3916 6.40897 53.2716 6.40897 52.9234C6.41913 48.9847 6.41478 45.0475 6.41478 41.1088C6.41478 40.6494 6.46413 40.626 6.91995 40.6333C9.99161 40.6845 13.0633 40.7328 16.1349 40.765C17.0291 40.7738 17.9306 40.7928 18.8146 40.6875C20.6844 40.4636 22.4887 38.9888 22.8516 36.98C23.1797 35.1628 22.7341 33.6499 21.3463 32.4517C20.4535 31.6806 19.3677 31.4085 18.2108 31.4085C14.4496 31.4114 10.6869 31.4202 6.92575 31.426C6.42349 31.426 6.37268 31.3704 6.37994 30.8525C6.393 29.8781 6.41768 28.9022 6.40752 27.9277C6.40316 27.5663 6.54107 27.4639 6.87785 27.4654C8.88546 27.4742 10.8945 27.4698 12.9021 27.4698V27.4859H12.905Z" fill="#FFFEFD"/>
<path d="M41.6619 48.0835C41.6619 46.4872 41.6721 44.8895 41.6518 43.2933C41.6489 43.0445 41.5647 42.7607 41.4268 42.5559C39.8677 40.2559 38.2927 37.9661 36.7191 35.6763C35.1731 33.4275 33.6213 31.1817 32.0724 28.9358C31.9215 28.7164 31.7269 28.5159 31.6268 28.2745C31.5397 28.0667 31.5295 27.8107 31.5527 27.5839C31.5586 27.5327 31.8431 27.48 31.9984 27.4786C33.3644 27.4683 34.7318 27.4786 36.0978 27.461C36.4752 27.4566 36.7496 27.5473 36.9732 27.8912C37.9007 29.3148 38.8908 30.6974 39.7893 32.1385C40.9187 33.9484 41.9813 35.7992 43.07 37.634C43.3052 38.0305 43.5258 38.4358 43.7712 38.8264C44.0034 39.1966 44.1442 39.1834 44.3591 38.8147C45.4551 36.9273 46.5235 35.0223 47.6586 33.1583C48.3961 31.9469 49.2293 30.794 50.0205 29.6147C50.4458 28.9797 50.8638 28.3389 51.3051 27.7156C51.3879 27.5985 51.5693 27.483 51.7058 27.4815C53.2053 27.4669 54.7049 27.4669 56.2044 27.48C56.6399 27.4844 56.7706 27.8048 56.4976 28.2247C56.0622 28.8963 55.6005 29.5489 55.1476 30.2087C53.8426 32.1093 52.5361 34.0099 51.2311 35.9104C49.7403 38.0802 48.2422 40.2456 46.7688 42.4271C46.6033 42.6714 46.4973 43.008 46.4944 43.302C46.4741 46.5077 46.4756 49.7134 46.4857 52.9205C46.4857 53.2658 46.3943 53.3916 46.0401 53.3872C44.722 53.3711 43.4039 53.3711 42.0858 53.3872C41.7519 53.3916 41.6489 53.2848 41.6518 52.9483C41.6663 51.3272 41.659 49.706 41.659 48.0849H41.6605L41.6619 48.0835Z" fill="#FFFEFD"/>
<path d="M56.7299 12.729C56.7299 19.759 51.0756 25.458 44.1007 25.458C37.1258 25.458 31.4715 19.759 31.4715 12.729C31.4715 5.69897 37.1258 0 44.1007 0C51.0756 0 56.7299 5.69897 56.7299 12.729Z" fill="#FFB128"/>
<path d="M0 63.5865H1.89438C2.45568 63.5865 2.94924 63.6962 3.37505 63.9157C3.80087 64.1303 4.1299 64.44 4.36216 64.8448C4.59926 65.2447 4.71781 65.7129 4.71781 66.2494C4.71781 66.7858 4.59926 67.2565 4.36216 67.6613C4.1299 68.0612 3.80087 68.3709 3.37505 68.5903C2.94924 68.8049 2.45568 68.9122 1.89438 68.9122H0V63.5865ZM0.435491 68.3489H1.87261C2.30326 68.3489 2.67585 68.2636 2.99037 68.0929C3.30973 67.9222 3.55409 67.6783 3.72344 67.3613C3.8928 67.0443 3.97748 66.6737 3.97748 66.2494C3.97748 65.8251 3.8928 65.4544 3.72344 65.1374C3.55409 64.8204 3.30973 64.5765 2.99037 64.4059C2.67585 64.2352 2.30326 64.1498 1.87261 64.1498H0.435491L0.696785 63.945V68.5537L0.435491 68.3489Z" fill="#FFFEFD"/>
<path d="M8.30466 63.5865H11.7523V64.1498H8.74741L9.00144 63.923V68.5757L8.74741 68.3489H11.8249V68.9122H8.30466V63.5865ZM8.63853 65.9275H11.5345V66.4761H8.63853V65.9275Z" fill="#FFFEFD"/>
<path d="M15.376 63.5865H16.0292L19.3462 68.049L19.1212 68.0709V63.5865H19.7527V68.9122H19.1502L15.8333 64.4497L16.0075 64.4278V68.9122H15.376V63.5865Z" fill="#FFFEFD"/>
<path d="M24.7716 63.8572H25.4684V68.9122H24.7716V63.8572ZM23.1095 63.5865H27.1305V64.1498H23.1095V63.5865Z" fill="#FFFEFD"/>
<path d="M30.4826 63.5865H31.1794V68.9122H30.4826V63.5865Z" fill="#FFFEFD"/>
<path d="M36.6352 69C36.2336 69 35.861 68.9293 35.5174 68.7878C35.1739 68.6415 34.9053 68.4562 34.7118 68.2319L34.9005 67.7344C35.0844 67.9393 35.3287 68.1075 35.6336 68.2392C35.9432 68.3709 36.265 68.4367 36.5989 68.4367C36.8408 68.4367 37.0586 68.3977 37.2521 68.3197C37.4457 68.2416 37.5981 68.1319 37.7094 67.9905C37.8207 67.8442 37.8763 67.671 37.8763 67.4711C37.8763 67.237 37.7844 67.0492 37.6005 66.9078C37.4167 66.7615 37.1167 66.6395 36.7005 66.542L36.5118 66.4981C36.1005 66.4006 35.7715 66.2908 35.5247 66.1689C35.2828 66.0421 35.1037 65.8885 34.9876 65.708C34.8763 65.5276 34.8206 65.3081 34.8206 65.0496C34.8206 64.718 34.9005 64.4376 35.0602 64.2083C35.2198 63.9742 35.4376 63.7987 35.7134 63.6816C35.9892 63.5597 36.3037 63.4987 36.657 63.4987C37.0344 63.4987 37.3779 63.5646 37.6876 63.6962C37.9973 63.8231 38.2465 63.9937 38.4352 64.2083L38.2538 64.7058C38.0747 64.5058 37.8449 64.3498 37.5642 64.2376C37.2884 64.1205 37.0005 64.062 36.7005 64.062C36.4731 64.062 36.2699 64.0986 36.0908 64.1718C35.9118 64.24 35.7715 64.3425 35.6699 64.479C35.5682 64.6156 35.5174 64.7814 35.5174 64.9765C35.5174 65.1374 35.5586 65.2715 35.6408 65.3788C35.7231 65.4861 35.8489 65.5788 36.0182 65.6568C36.1876 65.73 36.4126 65.7982 36.6933 65.8616L36.8892 65.9055C37.4892 66.0421 37.9199 66.2274 38.1812 66.4615C38.4425 66.6956 38.5731 67.0102 38.5731 67.4052C38.5731 67.7369 38.4884 68.0246 38.3191 68.2684C38.1497 68.5074 37.9175 68.6903 37.6223 68.8171C37.332 68.939 37.0029 69 36.6352 69Z" fill="#FFFEFD"/>
<path d="M43.1858 63.8572H43.8826V68.9122H43.1858V63.8572ZM41.5237 63.5865H45.5447V64.1498H41.5237V63.5865Z" fill="#FFFEFD"/>
<path d="M48.8969 63.5865H50.8856C51.2824 63.5865 51.6211 63.6475 51.9018 63.7694C52.1824 63.8913 52.3953 64.0669 52.5405 64.2961C52.6856 64.5253 52.7582 64.8009 52.7582 65.1228C52.7582 65.43 52.6784 65.7007 52.5187 65.9348C52.359 66.164 52.1388 66.3396 51.8582 66.4615C51.5775 66.5834 51.263 66.6444 50.9146 66.6444H49.2453V66.1031H50.8638C51.2316 66.1031 51.5219 66.0177 51.7348 65.847C51.9526 65.6714 52.0614 65.43 52.0614 65.1228C52.0614 64.8058 51.9574 64.5644 51.7493 64.3985C51.5413 64.2278 51.2364 64.1425 50.8348 64.1425H49.3324L49.5936 63.945V68.9122H48.8969V63.5865ZM50.7767 66.2347L51.4663 66.1762L52.8381 68.9122H52.0832L50.7767 66.2347Z" fill="#FFFEFD"/>
<path d="M55.6886 63.5865H56.4435L58.0911 66.6371H57.6701L59.325 63.5865H60L58.1274 66.959H57.5613L55.6886 63.5865ZM57.4959 66.5274H58.1927V68.9122H57.4959V66.5274Z" fill="#FFFEFD"/>
</svg>
